<svg width="717" height="717" viewBox="0 0 717 717" fill="none" xmlns="http://www.w3.org/2000/svg">
<path d="M125 444.467H150C150 434.53 144.115 425.533 135.009 421.557L125 444.467ZM591.667 444.467L581.657 421.557C572.55 425.533 566.667 434.53 566.667 444.467H591.667ZM483.333 191.667C483.333 205.474 494.527 216.667 508.333 216.667C522.14 216.667 533.333 205.474 533.333 191.667H483.333ZM183.333 191.667C183.333 205.474 194.526 216.667 208.333 216.667C222.14 216.667 233.333 205.474 233.333 191.667H183.333ZM425 666.667C411.193 666.667 400 677.86 400 691.667C400 705.473 411.193 716.667 425 716.667V666.667ZM291.667 716.667C305.473 716.667 316.667 705.473 316.667 691.667C316.667 677.86 305.473 666.667 291.667 666.667V716.667ZM191.667 100C85.812 100 0 185.812 0 291.667H50C50 213.426 113.426 150 191.667 150V100ZM525 150C603.24 150 666.667 213.426 666.667 291.667H716.667C716.667 185.812 630.853 100 525 100V150ZM258.333 666.667C226.2 666.667 204.614 666.613 188.513 664.45C173.131 662.38 166.548 658.807 162.204 654.463L126.849 689.817C142.031 705 160.924 711.19 181.851 714.003C202.058 716.72 227.613 716.667 258.333 716.667V666.667ZM100 558.333C100 589.053 99.947 614.61 102.664 634.817C105.477 655.743 111.666 674.637 126.849 689.817L162.204 654.463C157.86 650.12 154.286 643.537 152.218 628.153C150.053 612.053 150 590.467 150 558.333H100ZM566.667 558.333C566.667 590.467 566.613 612.053 564.45 628.153C562.38 643.537 558.807 650.12 554.463 654.463L589.817 689.817C605 674.637 611.19 655.743 614.003 634.817C616.72 614.61 616.667 589.053 616.667 558.333H566.667ZM458.333 716.667C489.053 716.667 514.61 716.72 534.817 714.003C555.743 711.19 574.637 705 589.817 689.817L554.463 654.463C550.12 658.807 543.537 662.38 528.153 664.45C512.053 666.613 490.467 666.667 458.333 666.667V716.667ZM191.667 150C198.79 150 205.775 150.524 212.59 151.531L219.901 102.068C210.674 100.705 201.245 100 191.667 100V150ZM358.333 0C281.316 0 215.981 49.7367 192.57 118.771L239.921 134.829C256.66 85.4673 303.387 50 358.333 50V0ZM192.57 118.771C186.574 136.451 183.333 155.373 183.333 175H233.333C233.333 160.905 235.657 147.404 239.921 134.829L192.57 118.771ZM525 100C515.423 100 505.993 100.705 496.767 102.068L504.077 151.531C510.89 150.524 517.877 150 525 150V100ZM358.333 50C413.28 50 460.007 85.4673 476.747 134.829L524.097 118.771C500.687 49.7367 435.35 0 358.333 0V50ZM476.747 134.829C481.01 147.404 483.333 160.905 483.333 175H533.333C533.333 155.373 530.093 136.451 524.097 118.771L476.747 134.829ZM150 558.333V444.467H100V558.333H150ZM135.009 421.557C84.923 399.673 50 349.72 50 291.667H0C0 370.3 47.35 437.82 114.991 467.373L135.009 421.557ZM566.667 444.467V558.333H616.667V444.467H566.667ZM666.667 291.667C666.667 349.72 631.743 399.673 581.657 421.557L601.677 467.373C669.317 437.82 716.667 370.3 716.667 291.667H666.667ZM483.333 175V191.667H533.333V175H483.333ZM183.333 175V191.667H233.333V175H183.333ZM458.333 666.667H425V716.667H458.333V666.667ZM291.667 666.667H258.333V716.667H291.667V666.667Z" fill="#04151F"/>
<path d="M125 558.333H391.667M591.667 558.333H525" stroke="#04151F" stroke-width="50" stroke-linecap="round" stroke-linejoin="round"/>
</svg>
